<svg xmlns="http://www.w3.org/2000/svg" xmlns:xlink="http://www.w3.org/1999/xlink" width="172" height="97" viewBox="0 0 172 97">
  <defs>
    <clipPath id="clip-path">
      <rect id="Rectangle_273" data-name="Rectangle 273" width="144" height="62.932" fill="none"/>
    </clipPath>
    <clipPath id="clip-Ecos">
      <rect width="172" height="97"/>
    </clipPath>
  </defs>
  <g id="Ecos" clip-path="url(#clip-Ecos)">
    <g id="Group_12277" data-name="Group 12277" transform="translate(-138 -2415.952)">
      <g id="Group_3746" data-name="Group 3746" transform="translate(152 2432.952)" clip-path="url(#clip-path)">
        <path id="Path_544" data-name="Path 544" d="M265.694,33.49l2.125-3.315a21.385,21.385,0,0,0,13,4.42c5.78,0,9.775-2.465,9.775-6.715,0-4.164-2.89-5.95-9.435-7.734l-2.8-.765c-6.63-1.7-10.88-4.165-10.88-9.6C267.479,3.74,272.834,0,280.4,0c4.675,0,8.415.935,13.515,3.654L291.958,6.97c-4.589-2.465-7.819-3.23-11.474-3.23-5.1,0-8.415,1.956-8.415,5.78,0,3.485,2.465,4.675,7.735,6.035l2.805.765c8.67,2.295,12.58,5.014,12.58,11.22,0,6.29-5.185,10.795-14.11,10.795a24.291,24.291,0,0,1-15.385-4.845" transform="translate(-151.371 -0.001)" fill="#424548"/>
        <path id="Path_545" data-name="Path 545" d="M89.684,19.975C89.684,5.7,99.119,0,107.364,0a23.225,23.225,0,0,1,11.05,2.975l-1.615,3.4a22.045,22.045,0,0,0-9.775-2.549c-7.9,0-12.665,6.714-12.665,16.149s3.91,14.45,12.07,14.45a20.3,20.3,0,0,0,11.22-3.655l1.87,3.23a23.153,23.153,0,0,1-13.6,4.335c-10.115,0-16.234-6.63-16.234-18.36" transform="translate(-51.095 -0.001)" fill="#424548"/>
        <path id="Path_546" data-name="Path 546" d="M31.449,19.465H4.419C4.5,30.345,9.35,34.51,16.574,34.51c5.78,0,8.925-1.956,12.155-4.08l1.785,3.229a23.6,23.6,0,0,1-14.025,4.675C6.97,38.335,0,32.9,0,19.21,0,10.116,5.1,0,17.084,0,27.2,0,31.619,6.885,31.619,15.385a37.88,37.88,0,0,1-.17,4.08M4.59,15.98H27.37V15.3c0-7.225-3.145-11.815-10.285-11.815C9.01,3.486,5.44,9.86,4.59,15.98" transform="translate(0 -0.001)" fill="#424548"/>
        <path id="Path_547" data-name="Path 547" d="M170.479,19.04C170.479,5.27,179.064,0,188.668,0c11.475,0,17.085,8.329,17.085,19.124,0,13.77-8.16,19.21-18.19,19.21-11.39,0-17.084-8.585-17.084-19.295m30.6,0c0-8.84-3.74-15.3-12.75-15.3-9.435,0-13.175,6.46-13.175,15.3,0,8.925,3.825,15.47,12.92,15.47s13-6.291,13-15.47" transform="translate(-97.125 -0.001)" fill="#424548"/>
        <path id="Path_548" data-name="Path 548" d="M218.322,114.99v13.17h-2.886v-5.467h-5.955v5.467H206.6V114.99h2.886v5.264h5.955V114.99Z" transform="translate(-117.702 -65.512)" fill="#00b3cd"/>
        <path id="Path_549" data-name="Path 549" d="M238.752,128.49c0-3.659,2.4-4.857,4.98-4.857,3.191,0,4.735,2.032,4.735,4.877,0,3.5-2.276,4.858-5,4.858-3.17,0-4.715-2.215-4.715-4.878m6.849,0c0-1.809-.589-2.8-1.951-2.8-1.484,0-2.052,1-2.052,2.8,0,1.666.589,2.825,2.012,2.825,1.565,0,1.991-1.26,1.991-2.825" transform="translate(-136.022 -70.436)" fill="#00b3cd"/>
        <path id="Path_550" data-name="Path 550" d="M270.266,129.872a5.323,5.323,0,0,1-2.683.671,2.667,2.667,0,0,1-2.845-2.886v-4.369h-1.667v-2.175h1.667V119.06l2.764-.386v2.439h2.541l-.285,2.175H267.5v3.942c0,.854.345,1.1.813,1.1a2.808,2.808,0,0,0,1.2-.305Z" transform="translate(-149.877 -67.611)" fill="#00b3cd"/>
        <path id="Path_551" data-name="Path 551" d="M289.8,129.1h-5.833a2.179,2.179,0,0,0,2.256,2.215,4.851,4.851,0,0,0,2.56-.772l.935,1.666a6.271,6.271,0,0,1-3.76,1.159c-2.52,0-4.756-1.281-4.756-4.8,0-3.129,1.707-4.938,4.533-4.938a3.82,3.82,0,0,1,4.166,4.045,9.041,9.041,0,0,1-.1,1.422m-5.751-1.788h3.231v-.061c0-1.321-.691-1.748-1.483-1.748-.956,0-1.525.569-1.748,1.809" transform="translate(-160.208 -70.436)" fill="#00b3cd"/>
        <path id="Path_552" data-name="Path 552" d="M305.762,112.75l2.763-.264v14.247h-2.763Z" transform="translate(-174.199 -64.086)" fill="#00b3cd"/>
        <path id="Path_553" data-name="Path 553" d="M315.536,132.108l1.159-1.768a5.157,5.157,0,0,0,3.008,1.016c.935,0,1.3-.3,1.3-.752,0-.407-.224-.691-1.728-1.118l-.59-.163c-1.93-.528-2.743-1.341-2.743-2.825,0-1.707,1.524-2.866,3.739-2.866a7.355,7.355,0,0,1,3.76,1l-1.057,1.768a5.1,5.1,0,0,0-2.622-.752c-.711,0-1.016.305-1.016.65,0,.386.184.549,1.342.854l.67.183c2.114.549,3.008,1.524,3.008,2.987,0,1.707-1.28,3.049-3.984,3.049a6.89,6.89,0,0,1-4.247-1.26" transform="translate(-179.767 -70.436)" fill="#00b3cd"/>
      </g>
    </g>
  </g>
</svg>
