<svg xmlns="http://www.w3.org/2000/svg" xmlns:xlink="http://www.w3.org/1999/xlink" width="91.763" height="131.471" viewBox="0 0 91.763 131.471">
  <defs>
    <clipPath id="clip-path">
      <rect id="Rectangle_5189" data-name="Rectangle 5189" width="91.763" height="108.223" transform="translate(0 0)" fill="none"/>
    </clipPath>
  </defs>
  <g id="corp" transform="translate(-75 -32.752)">
    <rect id="Rectangle_5181" data-name="Rectangle 5181" width="91.238" height="107.703" transform="translate(75.264 56.264)" fill="#050605"/>
    <path id="Path_15703" data-name="Path 15703" d="M.523.528H91.238V107.705H.523ZM0,108.223H91.763V0H0Z" transform="translate(75 56)" fill="#fff"/>
    <g id="Group_12487" data-name="Group 12487" transform="translate(75 56)" clip-path="url(#clip-path)">
      <path id="Path_15704" data-name="Path 15704" d="M40.345,84.417A11.529,11.529,0,1,1,51.879,72.886,11.53,11.53,0,0,1,40.345,84.417m0-25.1A13.564,13.564,0,1,0,53.914,72.886,13.564,13.564,0,0,0,40.345,59.322" fill="#fff"/>
      <path id="Path_15705" data-name="Path 15705" d="M69.831,59.511c-.067,0-.13,0-.2,0v2.038c.067,0,.13,0,.2,0a11.528,11.528,0,1,1,0,23.057,11.959,11.959,0,0,1-2.316-.228v-11.3H65.472V83.756h-.007l0,2.168h0V98.209h2.043V86.552c.756.019,1.522.091,2.316.091a13.566,13.566,0,1,0,0-27.132" fill="#fff"/>
      <path id="Path_15706" data-name="Path 15706" d="M58.285,65.932V60.576H56.257V86.449h2.028V73.082h0a11.532,11.532,0,0,1,9.265-11.31V59.7a13.578,13.578,0,0,0-9.268,6.228" fill="#fff"/>
      <path id="Path_15707" data-name="Path 15707" d="M26.3,85.642a13.561,13.561,0,1,1-.008-25.7v2.172A11.531,11.531,0,1,0,26.3,83.469Z" fill="#fff"/>
      <path id="Path_15708" data-name="Path 15708" d="M21.041,49.016a1.628,1.628,0,1,1,1.63-1.63,1.63,1.63,0,0,1-1.63,1.63" fill="#fff"/>
      <path id="Path_15709" data-name="Path 15709" d="M17.929,42.254a.757.757,0,0,0-.126-.012,10.437,10.437,0,1,1,0-20.874.93.93,0,1,0,0-1.846,12.28,12.28,0,0,0-.421,24.552v.016h11.5V42.254Z" fill="#fff"/>
      <path id="Path_15710" data-name="Path 15710" d="M33.246,48.809a12.724,12.724,0,0,0,1.91-6.562V29.563h-1.91V42.1a10.823,10.823,0,0,1-8.695,10.609v1.944a12.749,12.749,0,0,0,8.695-5.848" fill="#fff"/>
      <path id="Path_15711" data-name="Path 15711" d="M50.888,43.9A10.435,10.435,0,0,1,40.45,33.468v-.039a10.439,10.439,0,1,1,20.878,0v.039A10.439,10.439,0,0,1,50.888,43.9M86.244,11.881,65.256,23.053l.884,1.628,6.347-3.314a10.438,10.438,0,0,1-.013,20.875.69.69,0,0,0-.127.012H59.465a12.229,12.229,0,1,0-2.236,1.732A10.836,10.836,0,0,1,48.7,52.713v1.944A12.733,12.733,0,0,0,59.145,44.09H72.434v-.01c.017,0,.03,0,.04,0a12.279,12.279,0,0,0,2.887-24.215l10.883-5.685Z" fill="#fff"/>
      <path id="Path_15712" data-name="Path 15712" d="M36.133,11.894H35.4V11.13h.734Zm-.115,3.8c0-.063-.01-.619-.019-1.667-.01-.584-.271-.884-.777-.884a.861.861,0,0,0-.687.34,1.679,1.679,0,0,0-.32,1.017,1.041,1.041,0,0,0,.948,1.194Zm-1.107-3.8h-.735V11.13h.735Zm1.794,3.521a3.183,3.183,0,0,1-.778,2.232,2.613,2.613,0,0,1-2.041.843,2.752,2.752,0,0,1-2.057-.819,3.043,3.043,0,0,1-.846-2.265V14.142h.686v1.264a2.542,2.542,0,0,0,.648,1.745,2.128,2.128,0,0,0,3.629-.819h-.964a1.373,1.373,0,0,1-1.106-.518,1.864,1.864,0,0,1-.4-1.264,1.964,1.964,0,0,1,.626-1.47,1.528,1.528,0,0,1,1.044-.4,1.387,1.387,0,0,1,1.564,1.572Z" fill="#fff"/>
      <path id="Path_15713" data-name="Path 15713" d="M41.484,16.331H37.9l.211-.635h2.719a3.314,3.314,0,0,0-.488-1.715c-.282-.445-.579-.664-.9-.664V12.7a1.671,1.671,0,0,1,1.408.885,5.017,5.017,0,0,1,.638,2.746" fill="#fff"/>
      <path id="Path_15714" data-name="Path 15714" d="M44.716,16.331H43.86a.971.971,0,0,1-.706-.288,1.172,1.172,0,0,1-.338-.886l-.031-5.265h.689l.029,5.174c0,.368.157.577.466.63h.747Z" fill="#fff"/>
      <rect id="Rectangle_5182" data-name="Rectangle 5182" width="1.365" height="0.635" transform="translate(44.552 15.697)" fill="#fff"/>
      <rect id="Rectangle_5183" data-name="Rectangle 5183" width="1.363" height="0.635" transform="translate(45.738 15.697)" fill="#fff"/>
      <rect id="Rectangle_5184" data-name="Rectangle 5184" width="1.365" height="0.635" transform="translate(46.921 15.697)" fill="#fff"/>
      <rect id="Rectangle_5185" data-name="Rectangle 5185" width="1.362" height="0.635" transform="translate(48.104 15.697)" fill="#fff"/>
      <path id="Path_15715" data-name="Path 15715" d="M51.7,11.9h-.745v-.765H51.7Zm1.833,4.428h-.887a.966.966,0,0,1-.757-.376,1.337,1.337,0,0,1-.246-.43,1.376,1.376,0,0,1-1.244.806H49.1V15.7h1.114a.975.975,0,0,0,.516-.15.635.635,0,0,0,.3-.552c.02.163.02-.6-.009-2.294H51.7c0,.637.013,1.262.022,1.889a1.2,1.2,0,0,0,.309.837.763.763,0,0,0,.543.27h.959v.635Z" fill="#fff"/>
      <rect id="Rectangle_5186" data-name="Rectangle 5186" width="1.362" height="0.635" transform="translate(53.304 15.697)" fill="#fff"/>
      <rect id="Rectangle_5187" data-name="Rectangle 5187" width="1.363" height="0.635" transform="translate(54.487 15.697)" fill="#fff"/>
      <rect id="Rectangle_5188" data-name="Rectangle 5188" width="1.36" height="0.635" transform="translate(55.672 15.697)" fill="#fff"/>
      <path id="Path_15716" data-name="Path 15716" d="M59.567,10.461h-.733V9.689h.733Zm.521,3.712-.014-1.66c-.009-.589-.263-.887-.774-.887a.861.861,0,0,0-.685.329,1.7,1.7,0,0,0-.327,1.014,1.059,1.059,0,0,0,.951,1.2Zm.693,1.284a.8.8,0,0,1-.891.875H56.845V15.7h2.871c.259,0,.4-.15.411-.46v-.43H59.062a1.376,1.376,0,0,1-1.1-.521,1.865,1.865,0,0,1-.412-1.269,1.962,1.962,0,0,1,.619-1.461,1.554,1.554,0,0,1,1.043-.409,1.4,1.4,0,0,1,1.57,1.586Z" fill="#fff"/>
      <path id="Path_15717" data-name="Path 15717" d="M31.59,93.022V95.16h2.465V93.022h.67v5.1h-.67V95.732H31.59v2.395h-.664v-5.1Z" fill="#fff"/>
      <path id="Path_15718" data-name="Path 15718" d="M37.474,95.6c0,1.1.591,2.075,1.636,2.075s1.637-.961,1.637-2.119c0-1.022-.533-2.082-1.627-2.082s-1.646,1.015-1.646,2.126m3.965-.076a2.394,2.394,0,0,1-2.369,2.687,2.34,2.34,0,0,1-2.294-2.6,2.419,2.419,0,0,1,2.364-2.68,2.325,2.325,0,0,1,2.3,2.588" fill="#fff"/>
      <path id="Path_15719" data-name="Path 15719" d="M44.289,93.583H42.737v-.56h3.777v.56H44.955v4.544h-.666Z" fill="#fff"/>
      <path id="Path_15720" data-name="Path 15720" d="M50.932,95.733H48.953v1.842h2.211v.552H48.288v-5.1h2.764v.554h-2.1v1.615h1.979Z" fill="#fff"/>
      <path id="Path_15721" data-name="Path 15721" d="M53.224,93.022h.666v4.553h2.18v.552H53.224Z" fill="#fff"/>
      <path id="Path_15722" data-name="Path 15722" d="M57.936,97.325a2.221,2.221,0,0,0,1.17.333c.675,0,1.068-.359,1.068-.872,0-.469-.27-.75-.964-1-.83-.3-1.344-.747-1.344-1.453a1.469,1.469,0,0,1,1.65-1.388,2.324,2.324,0,0,1,1.121.248l-.182.54a1.893,1.893,0,0,0-.961-.243c-.7,0-.964.416-.964.766,0,.475.315.709,1.017.981.866.337,1.295.751,1.295,1.5,0,.783-.576,1.475-1.781,1.475a2.632,2.632,0,0,1-1.3-.333Z" fill="#fff"/>
    </g>
    <path id="Path_104" data-name="Path 104" d="M264.852,419.748c1.487,0,2.974-.017,4.46.01.417.007.574-.125.688-.525.379-1.326.812-2.636,1.224-3.952.036-.115.019-.264.212-.31.44,1.409.9,2.814,1.311,4.233.119.408.267.569.724.557,1.42-.038,2.841-.014,4.428-.014-1.261.961-2.387,1.846-3.544,2.687a.748.748,0,0,0-.308,1c.464,1.382.876,2.782,1.363,4.35-1.253-.955-2.376-1.781-3.462-2.653a.727.727,0,0,0-1.11-.022c-1.081.89-2.218,1.712-3.477,2.671.217-.72.386-1.287.56-1.852.274-.892.547-1.785.832-2.674.084-.258.131-.461-.14-.663-1.212-.9-2.41-1.819-3.611-2.733a.094.094,0,0,0-.15.018Z" transform="translate(-171.253 -382.035)" fill="#fff"/>
    <path id="Path_105" data-name="Path 105" d="M301.449,427.685c-1.168-.891-2.339-1.769-3.49-2.673a.534.534,0,0,0-.8-.009c-1.145.91-2.321,1.782-3.632,2.78.267-.871.484-1.583.7-2.3.223-.729.423-1.467.68-2.185a.576.576,0,0,0-.238-.793c-1.181-.865-2.335-1.768-3.636-2.762,1.1,0,2.063,0,3.023,0,.637,0,1.441.214,1.864-.091s.45-1.134.644-1.736c.311-.968.615-1.937.925-2.9,0-.012.034-.015.115-.047.44,1.407.906,2.8,1.3,4.217a.652.652,0,0,0,.778.574c1.4-.03,2.807-.011,4.374-.011-.529.408-.949.733-1.371,1.056-.76.581-1.51,1.174-2.286,1.733a.55.55,0,0,0-.22.742c.433,1.33.829,2.673,1.241,4.009C301.461,427.406,301.542,427.516,301.449,427.685Z" transform="translate(-169.253 -382.035)" fill="#fff"/>
    <path id="Path_106" data-name="Path 106" d="M317.161,419.747c-1.3.988-2.448,1.883-3.624,2.745a.636.636,0,0,0-.264.84c.41,1.249.787,2.509,1.177,3.765a.579.579,0,0,1,.028.54c-1.122-.853-2.251-1.676-3.336-2.553a.654.654,0,0,0-1.005,0c-.919.756-1.882,1.459-2.832,2.176-.178.134-.332.349-.626.259.444-1.419.878-2.841,1.338-4.255a.556.556,0,0,0-.239-.736c-1.181-.869-2.339-1.77-3.513-2.666.108-.212.3-.105.438-.106,1.32-.01,2.64-.017,3.959,0a.484.484,0,0,0,.566-.424c.437-1.481.91-2.95,1.407-4.543.47,1.5.943,2.867,1.311,4.259.158.6.426.733,1,.714C314.294,419.718,315.646,419.747,317.161,419.747Z" transform="translate(-168.253 -382.035)" fill="#fff"/>
    <path id="Path_108" data-name="Path 108" d="M277.947,419.747c1.588,0,3.008-.023,4.425.014.455.012.616-.145.734-.556.412-1.426.864-2.839,1.35-4.418.3.948.561,1.753.813,2.56.195.628.4,1.254.565,1.89a.587.587,0,0,0,.694.523c1.424-.034,2.85-.013,4.449-.013-.348.27-.583.454-.819.635-.93.709-1.848,1.436-2.8,2.116a.627.627,0,0,0-.254.842c.4,1.23.771,2.47,1.155,3.706.049.157.163.305.019.505a8.62,8.62,0,0,1-1.329-.947c-.465-.337-.916-.692-1.374-1.039-1.115-.848-1.114-.846-2.253.026-.909.7-1.822,1.384-2.88,2.187.391-1.277.727-2.387,1.071-3.5.456-1.464.459-1.463-.781-2.41Z" transform="translate(-170.253 -382.035)" fill="#fff"/>
  </g>
</svg>
